<svg xmlns="http://www.w3.org/2000/svg" width="10.999" height="15.997" viewBox="0.001 0 10.999 15.997"><path d="M9.39 1.641A5.414 5.414 0 0 0 5.5 0a5.413 5.413 0 0 0-3.888 1.641 5.919 5.919 0 0 0-1.55 3.364c-.212 1.588.12 3.272 1.033 4.51L5.5 15.997l4.4-6.473c1.538-2.088 1.435-5.43-.142-7.46a4.851 4.851 0 0 0-.369-.423Zm-.143 7.462-3.744 5.505-3.751-5.514a5.233 5.233 0 0 1-.946-3.09c0-1.374.47-2.753 1.382-3.681A4.617 4.617 0 0 1 5.503.925a4.618 4.618 0 0 1 3.315 1.398A5.064 5.064 0 0 1 10.145 5.2c.184 1.37-.105 2.827-.898 3.903Z" fill="rgba(247, 116, 0, 1)" fill-rule="evenodd" data-name="Geolocation"/></svg>