<svg xmlns="http://www.w3.org/2000/svg" width="16" height="17"><path d="M12.652 10.53a1.84 1.84 0 0 0-.448-.366 1.39 1.39 0 0 0-.695-.19 1.446 1.446 0 0 0-.802.252 2.006 2.006 0 0 0-.355.301l-1.068 1.13a19.48 19.48 0 0 0-.26-.143c-.107-.057-.209-.11-.298-.166a1.832 1.832 0 0 1-.038-.024 10.817 10.817 0 0 1-1.783-1.518 14.3 14.3 0 0 1-1-1.173c-.423-.567-.707-1.044-.913-1.529a13.839 13.839 0 0 0 .402-.409 55.785 55.785 0 0 0 .383-.409l.284-.305a2.083 2.083 0 0 0 .36-.512 1.63 1.63 0 0 0-.052-1.555 2.134 2.134 0 0 0-.308-.416l-.924-.98c-.104-.11-.213-.225-.314-.34a30.343 30.343 0 0 0-.208-.226 13.372 13.372 0 0 0-.428-.441 1.82 1.82 0 0 0-.464-.358 1.42 1.42 0 0 0-.669-.17 1.491 1.491 0 0 0-.825.258 1.99 1.99 0 0 0-.325.27l-.006.007-1.15 1.23c-.433.46-.68 1.02-.734 1.669A4.725 4.725 0 0 0 0 4.782C0 5.61.208 6.37.394 6.926a12.743 12.743 0 0 0 .053.153c.548 1.568 1.366 3.021 2.587 4.578 1.481 1.877 3.263 3.359 5.3 4.403.409.205.89.431 1.423.61a6.207 6.207 0 0 0 1.552.323c.071.003.146.007.213.007a2.473 2.473 0 0 0 1.872-.802 3 3 0 0 0 .08-.088.032.032 0 0 1 .006-.008.038.038 0 0 0 .007-.01 5.294 5.294 0 0 1 .344-.393 28.13 28.13 0 0 1 .248-.256 17.895 17.895 0 0 0 .223-.23 11.393 11.393 0 0 0 .217-.233 2.039 2.039 0 0 0 .385-.604 1.697 1.697 0 0 0 .125-.638 1.715 1.715 0 0 0-.339-1.013 2.11 2.11 0 0 0-.181-.217l-1.857-1.977Zm.798 4.217a305.46 305.46 0 0 0 .002-.002c.145-.15.28-.286.41-.436a1.408 1.408 0 0 0 .073-.087c.27-.35.246-.698-.076-1.036l-1.863-1.977a59.11 59.11 0 0 0-.001-.001.38.38 0 0 0-.004-.005 4.533 4.533 0 0 0-.001 0c-.106-.123-.278-.263-.488-.263a.537.537 0 0 0-.235.058.986.986 0 0 0-.276.21l-1.156 1.228a3.357 3.357 0 0 1-.006.007.75.75 0 0 1-.362.223.616.616 0 0 1-.146.017.698.698 0 0 1-.335-.09.117.117 0 0 1-.001 0l-.022-.014a.244.244 0 0 0-.018-.01 1.88 1.88 0 0 0-.037-.024 3.076 3.076 0 0 0-.142-.083 10.461 10.461 0 0 0-.155-.083 137.251 137.251 0 0 1-.017-.01 4.41 4.41 0 0 1-.4-.23 11.336 11.336 0 0 1-1.57-1.277 14.57 14.57 0 0 1-1.432-1.623l-.004-.004a8.848 8.848 0 0 1-.899-1.444 6.298 6.298 0 0 1-.193-.446 21.84 21.84 0 0 1-.01-.033 1.351 1.351 0 0 1-.03-.117.738.738 0 0 1 .206-.697c.002-.006.007-.009.011-.013a.078.078 0 0 0 .005-.004 14.61 14.61 0 0 0 .543-.548 31.84 31.84 0 0 0 .306-.328 9.992 9.992 0 0 0 .146-.153 56.892 56.892 0 0 1 .145-.156 1.472 1.472 0 0 0 .087-.1c.225-.287.241-.56.05-.845a1.34 1.34 0 0 0-.137-.167l-.923-.98c-.108-.118-.217-.233-.321-.348a27.678 27.678 0 0 0-.303-.328 12.978 12.978 0 0 0-.306-.314 1.073 1.073 0 0 0-.005-.006 1.073 1.073 0 0 1-.005-.005 1.151 1.151 0 0 0-.012-.012.914.914 0 0 0-.21-.164.562.562 0 0 0-.272-.075.638.638 0 0 0-.363.128 1.13 1.13 0 0 0-.151.127L1.394 3.43c-.28.298-.433.646-.467 1.066-.05.656.064 1.352.379 2.246a13.02 13.02 0 0 0 .915 2.037c.412.745.913 1.49 1.52 2.265 1.396 1.769 3.077 3.164 4.991 4.147.7.356 1.634.772 2.638.84.051.004.105.004.156.004a2.156 2.156 0 0 0 .116-.003c.471-.026.84-.21 1.155-.568.168-.209.344-.4.52-.581a19.775 19.775 0 0 1 .133-.136Zm2.543-7.248a9.303 9.303 0 0 0-2.411-4.934A8.426 8.426 0 0 0 8.932.007c-.247-.046-.48.133-.524.395a.529.529 0 0 0-.006.08.48.48 0 0 0 .381.48 7.545 7.545 0 0 1 4.156 2.285 8.307 8.307 0 0 1 2.155 4.41.485.485 0 0 0 .143.278.444.444 0 0 0 .306.124.355.355 0 0 0 .035-.002l.038-.005a3.583 3.583 0 0 1 .005 0 .468.468 0 0 0 .38-.47.503.503 0 0 0-.008-.083Zm-5.012-2.17a4.212 4.212 0 0 0-2.333-1.285.47.47 0 0 1-.376-.474.52.52 0 0 1 .007-.086.515.515 0 0 1 .019-.075.462.462 0 0 1 .433-.326.444.444 0 0 1 .076.006 5.122 5.122 0 0 1 2.824 1.554 5.654 5.654 0 0 1 1.464 2.996.528.528 0 0 1 .005.11.474.474 0 0 1-.38.45l-.044.005a.352.352 0 0 1-.034.002.444.444 0 0 1-.306-.124.485.485 0 0 1-.144-.278 4.674 4.674 0 0 0-1.21-2.476Zm2.499 10.773" fill="rgba(247, 116, 0, 1)" fill-rule="evenodd" data-name="Phone"/></svg>