<svg xmlns="http://www.w3.org/2000/svg" width="59.997" height="35.027" viewBox="1277 541 59.997 35.027"><path d="M1336.023 541h-19.489a349.764 349.764 0 0 1-3.653 20.24 438.265 438.265 0 0 1-3.377 14.787h15.243a198.03 198.03 0 0 0 4.096-9.43 251.707 251.707 0 0 0 3.108-8.083c1.575-4.307 2.85-8.124 3.828-11.451a94.949 94.949 0 0 0 1.218-4.525l-.974-1.538Zm-32.505 0h-19.488a349.76 349.76 0 0 1-3.654 20.24 438.366 438.366 0 0 1-3.376 14.787h15.243a198.03 198.03 0 0 0 4.095-9.43 251.707 251.707 0 0 0 3.109-8.083c1.574-4.307 2.85-8.124 3.828-11.451a94.949 94.949 0 0 0 1.218-4.525l-.975-1.538Z" fill="rgba(255, 255, 255, 1)" fill-rule="evenodd" data-name="“"/></svg>