<svg xmlns="http://www.w3.org/2000/svg" width="59.997" height="34.871" viewBox="218 252 59.997 34.871"><path d="M218.974 286.87h19.49a346.793 346.793 0 0 1 3.652-20.15 434.698 434.698 0 0 1 3.377-14.72H230.25a196.748 196.748 0 0 0-4.096 9.388 249.776 249.776 0 0 0-3.108 8.047 229.092 229.092 0 0 0-2.182 6.198c-1.24 3.7-2.195 6.936-2.864 9.706l.974 1.532Zm32.505 0h19.488a346.789 346.789 0 0 1 3.654-20.15 434.799 434.799 0 0 1 3.376-14.72h-15.243a196.748 196.748 0 0 0-4.095 9.388 249.776 249.776 0 0 0-3.109 8.047 229.092 229.092 0 0 0-2.182 6.198c-1.24 3.7-2.194 6.936-2.864 9.706l.975 1.532Z" fill="rgba(255, 255, 255, 1)" fill-rule="evenodd" data-name="“"/></svg>