<svg xmlns="http://www.w3.org/2000/svg" width="22.069" height="23" viewBox="30 0 22.069 23"><path d="M47.931 0H34.138a4.213 4.213 0 0 0-4.129 4.022 4.563 4.563 0 0 0-.009.29v14.375a4.38 4.38 0 0 0 1.411 3.244A4.028 4.028 0 0 0 34.138 23h13.793a4.213 4.213 0 0 0 4.129-4.022 4.563 4.563 0 0 0 .01-.29V4.311a4.38 4.38 0 0 0-1.412-3.244A4.028 4.028 0 0 0 47.931 0Zm-1.406 8.918.008.367a8.119 8.119 0 0 1-.111 1.326c-.558 3.364-3.205 6.729-7.62 6.729a7.47 7.47 0 0 1-4.164-1.272c.213.025.43.04.65.04a5.304 5.304 0 0 0 3.15-1.039 5.528 5.528 0 0 0 .223-.172 2.737 2.737 0 0 1-2.538-1.967 2.67 2.67 0 0 0 .512.05 2.614 2.614 0 0 0 .716-.099c-1.243-.261-2.18-1.404-2.18-2.776v-.036c.367.213.785.34 1.23.356a2.844 2.844 0 0 1-1.164-1.85 2.968 2.968 0 0 1-.044-.507c0-.518.134-1.004.368-1.423a7.61 7.61 0 0 0 5.599 2.959 2.95 2.95 0 0 1-.07-.646 2.875 2.875 0 0 1 .939-2.14 2.644 2.644 0 0 1 1.778-.69 2.668 2.668 0 0 1 1.984.894 5.367 5.367 0 0 0 1.725-.687 2.825 2.825 0 0 1-1.195 1.567 5.27 5.27 0 0 0 1.56-.446 5.618 5.618 0 0 1-1.356 1.462Z" fill="rgba(60, 60, 60, 1)" fill-rule="evenodd" data-name="Forma 1 copy"/></svg>